<svg width="18" height="18" viewBox="0 0 18 18" fill="none" xmlns="http://www.w3.org/2000/svg">
<g id=" Outline / people">
<path id="Union" fill-rule="evenodd" clip-rule="evenodd" d="M13.5 7.5C13.5 7.08675 13.164 6.75 12.75 6.75C12.336 6.75 12 7.08675 12 7.5C12 7.91325 12.336 8.25 12.75 8.25C13.164 8.25 13.5 7.91325 13.5 7.5ZM15 7.5C15 8.7405 13.9905 9.75 12.75 9.75C11.5095 9.75 10.5 8.7405 10.5 7.5C10.5 6.2595 11.5095 5.25 12.75 5.25C13.9905 5.25 15 6.2595 15 7.5ZM8.25 5.25C8.25 4.42275 7.57725 3.75 6.75 3.75C5.92275 3.75 5.25 4.42275 5.25 5.25C5.25 6.07725 5.92275 6.75 6.75 6.75C7.57725 6.75 8.25 6.07725 8.25 5.25ZM9.75 5.25C9.75 6.9045 8.4045 8.25 6.75 8.25C5.0955 8.25 3.75 6.9045 3.75 5.25C3.75 3.5955 5.0955 2.25 6.75 2.25C8.4045 2.25 9.75 3.5955 9.75 5.25ZM10.455 11.2845C11.1067 10.7805 11.9093 10.5 12.75 10.5C14.8177 10.5 16.5 12.1823 16.5 14.25C16.5 14.664 16.1648 15 15.75 15C15.3352 15 15 14.664 15 14.25C15 13.0095 13.9905 12 12.75 12C12.2378 12 11.751 12.1755 11.358 12.4867C11.766 13.2338 12 14.0903 12 15C12 15.414 11.6648 15.75 11.25 15.75C10.8352 15.75 10.5 15.414 10.5 15C10.5 12.9323 8.81775 11.25 6.75 11.25C4.68225 11.25 3 12.9323 3 15C3 15.414 2.66475 15.75 2.25 15.75C1.83525 15.75 1.5 15.414 1.5 15C1.5 12.105 3.85575 9.75 6.75 9.75C8.19525 9.75 9.50475 10.3372 10.455 11.2845Z" fill="#92929D" fill-opacity="0.6"/>
</g>
</svg>
