<svg width="18" height="18" viewBox="0 0 18 18" fill="none" xmlns="http://www.w3.org/2000/svg">
<g id=" Outline / briefcase">
<path id="Union" fill-rule="evenodd" clip-rule="evenodd" d="M15 13.5C15 13.9132 14.6632 14.25 14.25 14.25H12.75V6.75H14.25C14.6632 6.75 15 7.08675 15 7.5V13.5ZM3 13.5V7.5C3 7.08675 3.33675 6.75 3.75 6.75H5.25V14.25H3.75C3.33675 14.25 3 13.9132 3 13.5ZM7.5 4.125C7.5 3.918 7.668 3.75 7.875 3.75H10.125C10.332 3.75 10.5 3.918 10.5 4.125V5.25H7.5V4.125ZM6.75 14.25H11.25V6.75H6.75V14.25ZM14.25 5.25H12V4.125C12 3.0915 11.1585 2.25 10.125 2.25H7.875C6.8415 2.25 6 3.0915 6 4.125V5.25H3.75C2.5095 5.25 1.5 6.2595 1.5 7.5V13.5C1.5 14.7405 2.5095 15.75 3.75 15.75H14.25C15.4905 15.75 16.5 14.7405 16.5 13.5V7.5C16.5 6.2595 15.4905 5.25 14.25 5.25Z" fill="#92929D" fill-opacity="0.8"/>
</g>
</svg>
