<svg width="20" height="20" viewBox="0 0 20 20" fill="none" xmlns="http://www.w3.org/2000/svg">
<g id=" Outline / pin">
<path id="Union" fill-rule="evenodd" clip-rule="evenodd" d="M10.0002 9.16609C9.311 9.16609 8.75016 8.60525 8.75016 7.91609C8.75016 7.22692 9.311 6.66609 10.0002 6.66609C10.6893 6.66609 11.2502 7.22692 11.2502 7.91609C11.2502 8.60525 10.6893 9.16609 10.0002 9.16609ZM10.0002 4.99942C8.39183 4.99942 7.0835 6.30775 7.0835 7.91609C7.0835 9.52442 8.39183 10.8328 10.0002 10.8328C11.6085 10.8328 12.9168 9.52442 12.9168 7.91609C12.9168 6.30775 11.6085 4.99942 10.0002 4.99942ZM10.0002 16.3715C8.60433 15.0515 5.00016 11.3457 5.00016 8.26817C5.00016 5.54734 7.24266 3.33317 10.0002 3.33317C12.7577 3.33317 15.0002 5.54734 15.0002 8.26817C15.0002 11.3457 11.396 15.0515 10.0002 16.3715ZM10.0002 1.6665C6.32433 1.6665 3.3335 4.62734 3.3335 8.26817C3.3335 12.8307 9.20766 17.9173 9.45766 18.1315C9.61433 18.2657 9.80683 18.3332 10.0002 18.3332C10.1935 18.3332 10.386 18.2657 10.5427 18.1315C10.7927 17.9173 16.6668 12.8307 16.6668 8.26817C16.6668 4.62734 13.676 1.6665 10.0002 1.6665Z" fill="#92929D" fill-opacity="0.8"/>
</g>
</svg>
