<svg width="28" height="28" viewBox="0 0 28 28" fill="none" xmlns="http://www.w3.org/2000/svg">
<g id=" Outline / search">
<path id="Union" fill-rule="evenodd" clip-rule="evenodd" d="M5.83333 12.8333C5.83333 8.97283 8.97283 5.83333 12.8333 5.83333C16.6938 5.83333 19.8333 8.97283 19.8333 12.8333C19.8333 16.6938 16.6938 19.8333 12.8333 19.8333C8.97283 19.8333 5.83333 16.6938 5.83333 12.8333ZM24.1582 22.5085L20.1973 18.5465C21.4258 16.9668 22.1667 14.987 22.1667 12.8333C22.1667 7.68717 17.9795 3.5 12.8333 3.5C7.68717 3.5 3.5 7.68717 3.5 12.8333C3.5 17.9795 7.68717 22.1667 12.8333 22.1667C14.987 22.1667 16.9668 21.4258 18.5465 20.1973L22.5085 24.1582C22.736 24.3857 23.0347 24.5 23.3333 24.5C23.632 24.5 23.9307 24.3857 24.1582 24.1582C24.6143 23.702 24.6143 22.9647 24.1582 22.5085Z" fill="#92929D"/>
</g>
</svg>
